<svg width="57" height="64" viewBox="0 0 57 64" fill="none" xmlns="http://www.w3.org/2000/svg">
<path d="M45.5337 36.8748C45.5337 36.8748 45.5322 37.8748 43.0322 41.8748C40.5322 45.8748 40.0322 45.8748 40.0337 46.3748C40.0351 46.8748 40.0322 61.8748 40.0337 62.3748C40.0351 62.8748 16.5351 62.3748 16.0337 62.3748C15.5322 62.3748 16.5323 57.3748 16.0337 57.3748C15.5351 57.3748 9.53223 57.3748 9.03367 57.3748C8.53511 57.3748 7.65102 56.9923 7.03353 56.3748C6.4161 55.7573 6.03512 54.8748 6.03367 54.3748C6.03223 53.8748 6.03348 44.8748 6.03348 44.8748C6.03348 44.8748 0.53203 45.3748 1.03214 42.8748C1.53225 40.3748 6.03367 35.3748 6.03367 35.3748C6.03367 35.3748 6.03509 26.8748 6.03367 26.3748C6.03225 25.8748 7.03367 21.3748 12.0337 16.3748C17.0337 11.3748 20.0337 11.3748 20.0337 11.3748M38.0322 12.3748C41.6221 12.3748 44.5322 15.2849 44.5322 18.8748C44.5322 22.4646 41.6221 25.3748 38.0322 25.3748C34.4424 25.3748 31.5322 22.4646 31.5322 18.8748C31.5322 15.2849 34.4424 12.3748 38.0322 12.3748ZM35.0322 5.37476C35.5322 4.87476 35.5329 1.87414 36.0322 1.37476C36.5316 0.875392 39.5322 0.874765 40.0322 1.37476C40.5322 1.87476 40.5322 4.87476 41.0322 5.37476C41.5322 5.87476 45.5322 7.37476 46.0322 7.37476C46.5322 7.37476 48.5322 5.37476 49.0322 5.37476C49.5322 5.37476 52.0322 7.87404 52.0322 8.37476C52.0322 8.87549 50.5322 11.3762 50.5322 11.8755C50.5322 12.3748 51.5322 15.8755 52.0322 16.3755C52.5322 16.8755 55.5329 16.8755 56.0322 17.3748C56.5315 17.874 56.5315 20.8755 56.0322 21.3748C55.5329 21.874 52.5322 21.8748 52.0322 22.3748C51.5322 22.8748 50.0322 26.3755 50.0322 26.8755C50.0322 27.3755 52.0322 29.3755 52.0322 29.8755C52.0322 30.3755 50.0322 32.8755 49.5322 32.8755C49.0322 32.8755 46.5322 31.3748 46.0322 31.3748C45.5322 31.3748 41.0322 32.8748 41.0322 33.3748C41.0322 33.8748 41.0322 36.3748 40.5322 36.8748C40.0322 37.3748 36.5322 37.3748 36.0322 36.8748C35.5322 36.3748 35.5322 33.8748 35.0322 33.3748C34.5322 32.8748 31.5322 31.3748 31.0322 31.3748C30.5322 31.3748 27.0322 33.3748 26.5322 33.3748C26.0322 33.3748 24.0322 30.8748 24.0322 30.3748C24.0322 29.8748 25.8263 27.0814 26.0322 26.8755C26.2381 26.6696 24.5322 22.8748 24.0322 22.3748C23.5322 21.8748 20.5322 21.8748 20.0337 21.3748C19.5351 20.8748 19.5337 17.8748 20.0337 17.3748C20.5337 16.8748 23.0322 16.3755 24.0322 15.8755C25.0322 15.3755 25.5322 12.3755 25.5322 11.8755C25.5322 11.3755 24.0322 7.87476 24.0322 7.37476C24.0322 6.87476 26.0322 5.37476 26.5322 5.37476C27.0322 5.37476 29.5322 7.37476 30.0322 7.37476C30.5322 7.37476 34.5322 5.87476 35.0322 5.37476Z" stroke="black"/>
</svg>
