<svg width="62" height="62" viewBox="0 0 62 62" fill="none" xmlns="http://www.w3.org/2000/svg">
<path d="M31 1C47.5685 1 61 14.4315 61 31M31 1C14.4315 1 1 14.4315 1 31M31 1C31 1 31 10.7516 31 17M31 1C31 1 46 10 46 31M31 1C31 1 16 11 16 31M61 31C61 47.5685 47.5685 61 31 61M61 31C61 31 51.8579 31 46 31M31 61C14.4315 61 1 47.5685 1 31M31 61C31 61 31 53.5566 31 44M31 61C31 61 46 51 46 31M31 61C31 61 16 51 16 31M1 31C1 31 10.1421 31 16 31M9 10C9 10 15 17 31 17M31 17C47 17 53 10 53 10M31 17C31 25.1303 31 35.4173 31 44M9 51C9 51 15 44 31 44M31 44C47 44 53 51 53 51M46 31C34.2843 31 27.7157 31 16 31" stroke="black" stroke-width="1.5"/>
</svg>
