<svg width="56" height="55" viewBox="0 0 56 55" fill="none" xmlns="http://www.w3.org/2000/svg">
<path d="M52.002 51.1197C51.602 53.1197 49.8354 53.6197 49.0022 53.6197C10.2022 52.0197 0.835506 20.6197 1.00217 5.1197C2.00217 2.6197 9.50195 1.61963 12.502 1.1197C14.9974 0.703863 16.1686 1.45304 16.502 2.1197L21.002 12.1197C22.602 14.9197 21.6686 16.6197 21.002 17.1197L15.002 22.1197C18.602 31.7197 28.502 38.1197 33.002 40.1197C34.002 39.1197 36.402 36.6197 38.002 34.6197C39.602 32.6197 41.6686 33.1197 42.502 33.6197C45.1686 34.7864 50.902 37.3197 52.502 38.1197C54.102 38.9197 54.502 40.453 54.502 41.1197C53.8353 43.6197 52.402 49.1197 52.002 51.1197Z" stroke="white"/>
</svg>
