<svg width="70" height="60" viewBox="0 0 70 60" fill="none" xmlns="http://www.w3.org/2000/svg">
<path d="M55.5 51C55.5 51 50 59 34.5 59C19 59 12 49 12 49M12 49V56M12 49H19" stroke="black"/>
<path d="M14 9C14 9 19.5 0.999997 35 0.999998C50.5 0.999999 57.5 11 57.5 11M57.5 11L57.5 4M57.5 11L50.5 11" stroke="black"/>
<path d="M1.00002 46C0.999972 45 1.00003 40.5 1.00002 40C1.00001 39.5 9.00002 36 9.00002 35C9.00002 34 9.00002 29.5 9.00002 29C9.00002 28.5 8.00002 28.5 8.00002 28C8.00002 27.5 8.00002 23 8.00002 21C8.00002 19 10.9541 17.5 13.5 17.5C16.0459 17.5 19 19 19 21C19 23 19 27 19 28C19 29 18 28.5 18 29C18 29.5 18 34 18 35C18 36 26 39.5 26 40C26 40.5 26 46 26 46" stroke="black"/>
<path d="M44 45.5C44 44.5 44 40 44 39.5C44 39 52 35.5 52 34.5C52 33.5 52 29 52 28.5C52 28 51 28 51 27.5C51 27 51 22.5 51 20.5C51 18.5 53.9541 17 56.5 17C59.0459 17 62 18.5 62 20.5C62 22.5 62 26.5 62 27.5C62 28.5 61 28 61 28.5C61 29 61 33.5 61 34.5C61 35.5 69 39 69 39.5C69 40 69 45.5 69 45.5" stroke="black"/>
</svg>
